<?xml version="1.0" encoding="iso-8859-1"?>
<!-- Uploaded to: SVG Repo, www.svgrepo.com, Generator: SVG Repo Mixer Tools -->
<svg fill="#000000" height="800px" width="800px" version="1.1" id="Layer_1" xmlns="http://www.w3.org/2000/svg" xmlns:xlink="http://www.w3.org/1999/xlink" 
	 viewBox="0 0 512.001 512.001" xml:space="preserve">
<g>
	<g>
		<path d="M207.705,0c-9.852,0-17.839,7.987-17.839,17.839v55.585c0,9.852,7.987,17.839,17.839,17.839
			c9.852,0,17.839-7.987,17.839-17.839V17.839C225.544,7.987,217.557,0,207.705,0z"/>
	</g>
</g>
<g>
	<g>
		<path d="M273.775,24.09c-9.852,0-17.839,7.987-17.839,17.839v31.494c0,9.853,7.987,17.84,17.839,17.84s17.839-7.987,17.839-17.839
			V41.929C291.614,32.077,283.627,24.09,273.775,24.09z"/>
	</g>
</g>
<g>
	<g>
		<path d="M405.929,269.604l-63.446-63.445c-7.579-7.58-20.322-6.922-26.946,2.026v-48.262h8.281
			c9.852,0,17.839-7.987,17.839-17.839s-7.987-17.839-17.839-17.839c-0.641,0-164.464,0-166.153,0
			c-9.852,0-17.839,7.987-17.839,17.839s7.987,17.839,17.839,17.839h8.274v92.515c-117.69,74.188-66.01,259.563,74.805,259.563
			c100.763,0,169.883-104.112,128.568-197.412l16.298-16.298C403.597,306.91,420.071,283.743,405.929,269.604z M205.636,421.162
			c-7.023,0-12.716-5.693-12.716-12.716s5.693-12.716,12.716-12.716c7.023,0,12.716,5.693,12.716,12.716
			C218.35,415.469,212.657,421.162,205.636,421.162z M263.886,433.12c-13.628,0-24.675-11.047-24.675-24.675
			s11.047-24.674,24.675-24.674c13.627,0,24.674,11.047,24.674,24.674S277.513,433.12,263.886,433.12z M334.984,298.459
			c-5.557,5.557-6.812,14.08-3.138,20.986H149.652c9.875-17.224,24.586-31.563,42.414-40.92c5.871-3.081,9.549-9.166,9.549-15.796
			V159.924h78.242v102.805c0,15.007,21.504,26.658,33.75,14.408l24.694-24.701l21.353,21.353L334.984,298.459z"/>
	</g>
</g>
</svg>